# torus ring (Portal portal frame)
v 0.680000 0.000000 0.000000
v 0.662583 0.000000 0.065000
v 0.615000 0.000000 0.112583
v 0.550000 0.000000 0.130000
v 0.485000 0.000000 0.112583
v 0.437417 0.000000 0.065000
v 0.420000 0.000000 0.000000
v 0.437417 0.000000 -0.065000
v 0.485000 0.000000 -0.112583
v 0.550000 0.000000 -0.130000
v 0.615000 0.000000 -0.112583
v 0.662583 0.000000 -0.065000
v 0.671628 0.106375 0.000000
v 0.654426 0.103651 0.065000
v 0.607428 0.096207 0.112583
v 0.543229 0.086039 0.130000
v 0.479029 0.075871 0.112583
v 0.432031 0.068427 0.065000
v 0.414829 0.065702 0.000000
v 0.432031 0.068427 -0.065000
v 0.479029 0.075871 -0.112583
v 0.543229 0.086039 -0.130000
v 0.607428 0.096207 -0.112583
v 0.654426 0.103651 -0.065000
v 0.646718 0.210132 0.000000
v 0.630154 0.204750 0.065000
v 0.584900 0.190045 0.112583
v 0.523081 0.169959 0.130000
v 0.461262 0.149873 0.112583
v 0.416008 0.135169 0.065000
v 0.399444 0.129787 0.000000
v 0.416008 0.135169 -0.065000
v 0.461262 0.149873 -0.112583
v 0.523081 0.169959 -0.130000
v 0.584900 0.190045 -0.112583
v 0.630154 0.204750 -0.065000
v 0.605884 0.308714 0.000000
v 0.590366 0.300807 0.065000
v 0.547969 0.279204 0.112583
v 0.490054 0.249695 0.130000
v 0.432138 0.220185 0.112583
v 0.389741 0.198583 0.065000
v 0.374223 0.190676 0.000000
v 0.389741 0.198583 -0.065000
v 0.432138 0.220185 -0.112583
v 0.490054 0.249695 -0.130000
v 0.547969 0.279204 -0.112583
v 0.590366 0.300807 -0.065000
v 0.550132 0.399694 0.000000
v 0.536041 0.389457 0.065000
v 0.497545 0.361488 0.112583
v 0.444959 0.323282 0.130000
v 0.392373 0.285076 0.112583
v 0.353878 0.257107 0.065000
v 0.339787 0.246870 0.000000
v 0.353878 0.257107 -0.065000
v 0.392373 0.285076 -0.112583
v 0.444959 0.323282 -0.130000
v 0.497545 0.361488 -0.112583
v 0.536041 0.389457 -0.065000
v 0.480833 0.480833 0.000000
v 0.468517 0.468517 0.065000
v 0.434871 0.434871 0.112583
v 0.388909 0.388909 0.130000
v 0.342947 0.342947 0.112583
v 0.309300 0.309300 0.065000
v 0.296985 0.296985 0.000000
v 0.309300 0.309300 -0.065000
v 0.342947 0.342947 -0.112583
v 0.388909 0.388909 -0.130000
v 0.434871 0.434871 -0.112583
v 0.468517 0.468517 -0.065000
v 0.399694 0.550132 0.000000
v 0.389457 0.536041 0.065000
v 0.361488 0.497545 0.112583
v 0.323282 0.444959 0.130000
v 0.285076 0.392373 0.112583
v 0.257107 0.353878 0.065000
v 0.246870 0.339787 0.000000
v 0.257107 0.353878 -0.065000
v 0.285076 0.392373 -0.112583
v 0.323282 0.444959 -0.130000
v 0.361488 0.497545 -0.112583
v 0.389457 0.536041 -0.065000
v 0.308714 0.605884 0.000000
v 0.300807 0.590366 0.065000
v 0.279204 0.547969 0.112583
v 0.249695 0.490054 0.130000
v 0.220185 0.432138 0.112583
v 0.198583 0.389741 0.065000
v 0.190676 0.374223 0.000000
v 0.198583 0.389741 -0.065000
v 0.220185 0.432138 -0.112583
v 0.249695 0.490054 -0.130000
v 0.279204 0.547969 -0.112583
v 0.300807 0.590366 -0.065000
v 0.210132 0.646718 0.000000
v 0.204750 0.630154 0.065000
v 0.190045 0.584900 0.112583
v 0.169959 0.523081 0.130000
v 0.149873 0.461262 0.112583
v 0.135169 0.416008 0.065000
v 0.129787 0.399444 0.000000
v 0.135169 0.416008 -0.065000
v 0.149873 0.461262 -0.112583
v 0.169959 0.523081 -0.130000
v 0.190045 0.584900 -0.112583
v 0.204750 0.630154 -0.065000
v 0.106375 0.671628 0.000000
v 0.103651 0.654426 0.065000
v 0.096207 0.607428 0.112583
v 0.086039 0.543229 0.130000
v 0.075871 0.479029 0.112583
v 0.068427 0.432031 0.065000
v 0.065702 0.414829 0.000000
v 0.068427 0.432031 -0.065000
v 0.075871 0.479029 -0.112583
v 0.086039 0.543229 -0.130000
v 0.096207 0.607428 -0.112583
v 0.103651 0.654426 -0.065000
v 0.000000 0.680000 0.000000
v 0.000000 0.662583 0.065000
v 0.000000 0.615000 0.112583
v 0.000000 0.550000 0.130000
v 0.000000 0.485000 0.112583
v 0.000000 0.437417 0.065000
v 0.000000 0.420000 0.000000
v 0.000000 0.437417 -0.065000
v 0.000000 0.485000 -0.112583
v 0.000000 0.550000 -0.130000
v 0.000000 0.615000 -0.112583
v 0.000000 0.662583 -0.065000
v -0.106375 0.671628 0.000000
v -0.103651 0.654426 0.065000
v -0.096207 0.607428 0.112583
v -0.086039 0.543229 0.130000
v -0.075871 0.479029 0.112583
v -0.068427 0.432031 0.065000
v -0.065702 0.414829 0.000000
v -0.068427 0.432031 -0.065000
v -0.075871 0.479029 -0.112583
v -0.086039 0.543229 -0.130000
v -0.096207 0.607428 -0.112583
v -0.103651 0.654426 -0.065000
v -0.210132 0.646718 0.000000
v -0.204750 0.630154 0.065000
v -0.190045 0.584900 0.112583
v -0.169959 0.523081 0.130000
v -0.149873 0.461262 0.112583
v -0.135169 0.416008 0.065000
v -0.129787 0.399444 0.000000
v -0.135169 0.416008 -0.065000
v -0.149873 0.461262 -0.112583
v -0.169959 0.523081 -0.130000
v -0.190045 0.584900 -0.112583
v -0.204750 0.630154 -0.065000
v -0.308714 0.605884 0.000000
v -0.300807 0.590366 0.065000
v -0.279204 0.547969 0.112583
v -0.249695 0.490054 0.130000
v -0.220185 0.432138 0.112583
v -0.198583 0.389741 0.065000
v -0.190676 0.374223 0.000000
v -0.198583 0.389741 -0.065000
v -0.220185 0.432138 -0.112583
v -0.249695 0.490054 -0.130000
v -0.279204 0.547969 -0.112583
v -0.300807 0.590366 -0.065000
v -0.399694 0.550132 0.000000
v -0.389457 0.536041 0.065000
v -0.361488 0.497545 0.112583
v -0.323282 0.444959 0.130000
v -0.285076 0.392373 0.112583
v -0.257107 0.353878 0.065000
v -0.246870 0.339787 0.000000
v -0.257107 0.353878 -0.065000
v -0.285076 0.392373 -0.112583
v -0.323282 0.444959 -0.130000
v -0.361488 0.497545 -0.112583
v -0.389457 0.536041 -0.065000
v -0.480833 0.480833 0.000000
v -0.468517 0.468517 0.065000
v -0.434871 0.434871 0.112583
v -0.388909 0.388909 0.130000
v -0.342947 0.342947 0.112583
v -0.309300 0.309300 0.065000
v -0.296985 0.296985 0.000000
v -0.309300 0.309300 -0.065000
v -0.342947 0.342947 -0.112583
v -0.388909 0.388909 -0.130000
v -0.434871 0.434871 -0.112583
v -0.468517 0.468517 -0.065000
v -0.550132 0.399694 0.000000
v -0.536041 0.389457 0.065000
v -0.497545 0.361488 0.112583
v -0.444959 0.323282 0.130000
v -0.392373 0.285076 0.112583
v -0.353878 0.257107 0.065000
v -0.339787 0.246870 0.000000
v -0.353878 0.257107 -0.065000
v -0.392373 0.285076 -0.112583
v -0.444959 0.323282 -0.130000
v -0.497545 0.361488 -0.112583
v -0.536041 0.389457 -0.065000
v -0.605884 0.308714 0.000000
v -0.590366 0.300807 0.065000
v -0.547969 0.279204 0.112583
v -0.490054 0.249695 0.130000
v -0.432138 0.220185 0.112583
v -0.389741 0.198583 0.065000
v -0.374223 0.190676 0.000000
v -0.389741 0.198583 -0.065000
v -0.432138 0.220185 -0.112583
v -0.490054 0.249695 -0.130000
v -0.547969 0.279204 -0.112583
v -0.590366 0.300807 -0.065000
v -0.646718 0.210132 0.000000
v -0.630154 0.204750 0.065000
v -0.584900 0.190045 0.112583
v -0.523081 0.169959 0.130000
v -0.461262 0.149873 0.112583
v -0.416008 0.135169 0.065000
v -0.399444 0.129787 0.000000
v -0.416008 0.135169 -0.065000
v -0.461262 0.149873 -0.112583
v -0.523081 0.169959 -0.130000
v -0.584900 0.190045 -0.112583
v -0.630154 0.204750 -0.065000
v -0.671628 0.106375 0.000000
v -0.654426 0.103651 0.065000
v -0.607428 0.096207 0.112583
v -0.543229 0.086039 0.130000
v -0.479029 0.075871 0.112583
v -0.432031 0.068427 0.065000
v -0.414829 0.065702 0.000000
v -0.432031 0.068427 -0.065000
v -0.479029 0.075871 -0.112583
v -0.543229 0.086039 -0.130000
v -0.607428 0.096207 -0.112583
v -0.654426 0.103651 -0.065000
v -0.680000 0.000000 0.000000
v -0.662583 0.000000 0.065000
v -0.615000 0.000000 0.112583
v -0.550000 0.000000 0.130000
v -0.485000 0.000000 0.112583
v -0.437417 0.000000 0.065000
v -0.420000 0.000000 0.000000
v -0.437417 0.000000 -0.065000
v -0.485000 0.000000 -0.112583
v -0.550000 0.000000 -0.130000
v -0.615000 0.000000 -0.112583
v -0.662583 0.000000 -0.065000
v -0.671628 -0.106375 0.000000
v -0.654426 -0.103651 0.065000
v -0.607428 -0.096207 0.112583
v -0.543229 -0.086039 0.130000
v -0.479029 -0.075871 0.112583
v -0.432031 -0.068427 0.065000
v -0.414829 -0.065702 0.000000
v -0.432031 -0.068427 -0.065000
v -0.479029 -0.075871 -0.112583
v -0.543229 -0.086039 -0.130000
v -0.607428 -0.096207 -0.112583
v -0.654426 -0.103651 -0.065000
v -0.646718 -0.210132 0.000000
v -0.630154 -0.204750 0.065000
v -0.584900 -0.190045 0.112583
v -0.523081 -0.169959 0.130000
v -0.461262 -0.149873 0.112583
v -0.416008 -0.135169 0.065000
v -0.399444 -0.129787 0.000000
v -0.416008 -0.135169 -0.065000
v -0.461262 -0.149873 -0.112583
v -0.523081 -0.169959 -0.130000
v -0.584900 -0.190045 -0.112583
v -0.630154 -0.204750 -0.065000
v -0.605884 -0.308714 0.000000
v -0.590366 -0.300807 0.065000
v -0.547969 -0.279204 0.112583
v -0.490054 -0.249695 0.130000
v -0.432138 -0.220185 0.112583
v -0.389741 -0.198583 0.065000
v -0.374223 -0.190676 0.000000
v -0.389741 -0.198583 -0.065000
v -0.432138 -0.220185 -0.112583
v -0.490054 -0.249695 -0.130000
v -0.547969 -0.279204 -0.112583
v -0.590366 -0.300807 -0.065000
v -0.550132 -0.399694 0.000000
v -0.536041 -0.389457 0.065000
v -0.497545 -0.361488 0.112583
v -0.444959 -0.323282 0.130000
v -0.392373 -0.285076 0.112583
v -0.353878 -0.257107 0.065000
v -0.339787 -0.246870 0.000000
v -0.353878 -0.257107 -0.065000
v -0.392373 -0.285076 -0.112583
v -0.444959 -0.323282 -0.130000
v -0.497545 -0.361488 -0.112583
v -0.536041 -0.389457 -0.065000
v -0.480833 -0.480833 0.000000
v -0.468517 -0.468517 0.065000
v -0.434871 -0.434871 0.112583
v -0.388909 -0.388909 0.130000
v -0.342947 -0.342947 0.112583
v -0.309300 -0.309300 0.065000
v -0.296985 -0.296985 0.000000
v -0.309300 -0.309300 -0.065000
v -0.342947 -0.342947 -0.112583
v -0.388909 -0.388909 -0.130000
v -0.434871 -0.434871 -0.112583
v -0.468517 -0.468517 -0.065000
v -0.399694 -0.550132 0.000000
v -0.389457 -0.536041 0.065000
v -0.361488 -0.497545 0.112583
v -0.323282 -0.444959 0.130000
v -0.285076 -0.392373 0.112583
v -0.257107 -0.353878 0.065000
v -0.246870 -0.339787 0.000000
v -0.257107 -0.353878 -0.065000
v -0.285076 -0.392373 -0.112583
v -0.323282 -0.444959 -0.130000
v -0.361488 -0.497545 -0.112583
v -0.389457 -0.536041 -0.065000
v -0.308714 -0.605884 0.000000
v -0.300807 -0.590366 0.065000
v -0.279204 -0.547969 0.112583
v -0.249695 -0.490054 0.130000
v -0.220185 -0.432138 0.112583
v -0.198583 -0.389741 0.065000
v -0.190676 -0.374223 0.000000
v -0.198583 -0.389741 -0.065000
v -0.220185 -0.432138 -0.112583
v -0.249695 -0.490054 -0.130000
v -0.279204 -0.547969 -0.112583
v -0.300807 -0.590366 -0.065000
v -0.210132 -0.646718 0.000000
v -0.204750 -0.630154 0.065000
v -0.190045 -0.584900 0.112583
v -0.169959 -0.523081 0.130000
v -0.149873 -0.461262 0.112583
v -0.135169 -0.416008 0.065000
v -0.129787 -0.399444 0.000000
v -0.135169 -0.416008 -0.065000
v -0.149873 -0.461262 -0.112583
v -0.169959 -0.523081 -0.130000
v -0.190045 -0.584900 -0.112583
v -0.204750 -0.630154 -0.065000
v -0.106375 -0.671628 0.000000
v -0.103651 -0.654426 0.065000
v -0.096207 -0.607428 0.112583
v -0.086039 -0.543229 0.130000
v -0.075871 -0.479029 0.112583
v -0.068427 -0.432031 0.065000
v -0.065702 -0.414829 0.000000
v -0.068427 -0.432031 -0.065000
v -0.075871 -0.479029 -0.112583
v -0.086039 -0.543229 -0.130000
v -0.096207 -0.607428 -0.112583
v -0.103651 -0.654426 -0.065000
v -0.000000 -0.680000 0.000000
v -0.000000 -0.662583 0.065000
v -0.000000 -0.615000 0.112583
v -0.000000 -0.550000 0.130000
v -0.000000 -0.485000 0.112583
v -0.000000 -0.437417 0.065000
v -0.000000 -0.420000 0.000000
v -0.000000 -0.437417 -0.065000
v -0.000000 -0.485000 -0.112583
v -0.000000 -0.550000 -0.130000
v -0.000000 -0.615000 -0.112583
v -0.000000 -0.662583 -0.065000
v 0.106375 -0.671628 0.000000
v 0.103651 -0.654426 0.065000
v 0.096207 -0.607428 0.112583
v 0.086039 -0.543229 0.130000
v 0.075871 -0.479029 0.112583
v 0.068427 -0.432031 0.065000
v 0.065702 -0.414829 0.000000
v 0.068427 -0.432031 -0.065000
v 0.075871 -0.479029 -0.112583
v 0.086039 -0.543229 -0.130000
v 0.096207 -0.607428 -0.112583
v 0.103651 -0.654426 -0.065000
v 0.210132 -0.646718 0.000000
v 0.204750 -0.630154 0.065000
v 0.190045 -0.584900 0.112583
v 0.169959 -0.523081 0.130000
v 0.149873 -0.461262 0.112583
v 0.135169 -0.416008 0.065000
v 0.129787 -0.399444 0.000000
v 0.135169 -0.416008 -0.065000
v 0.149873 -0.461262 -0.112583
v 0.169959 -0.523081 -0.130000
v 0.190045 -0.584900 -0.112583
v 0.204750 -0.630154 -0.065000
v 0.308714 -0.605884 0.000000
v 0.300807 -0.590366 0.065000
v 0.279204 -0.547969 0.112583
v 0.249695 -0.490054 0.130000
v 0.220185 -0.432138 0.112583
v 0.198583 -0.389741 0.065000
v 0.190676 -0.374223 0.000000
v 0.198583 -0.389741 -0.065000
v 0.220185 -0.432138 -0.112583
v 0.249695 -0.490054 -0.130000
v 0.279204 -0.547969 -0.112583
v 0.300807 -0.590366 -0.065000
v 0.399694 -0.550132 0.000000
v 0.389457 -0.536041 0.065000
v 0.361488 -0.497545 0.112583
v 0.323282 -0.444959 0.130000
v 0.285076 -0.392373 0.112583
v 0.257107 -0.353878 0.065000
v 0.246870 -0.339787 0.000000
v 0.257107 -0.353878 -0.065000
v 0.285076 -0.392373 -0.112583
v 0.323282 -0.444959 -0.130000
v 0.361488 -0.497545 -0.112583
v 0.389457 -0.536041 -0.065000
v 0.480833 -0.480833 0.000000
v 0.468517 -0.468517 0.065000
v 0.434871 -0.434871 0.112583
v 0.388909 -0.388909 0.130000
v 0.342947 -0.342947 0.112583
v 0.309300 -0.309300 0.065000
v 0.296985 -0.296985 0.000000
v 0.309300 -0.309300 -0.065000
v 0.342947 -0.342947 -0.112583
v 0.388909 -0.388909 -0.130000
v 0.434871 -0.434871 -0.112583
v 0.468517 -0.468517 -0.065000
v 0.550132 -0.399694 0.000000
v 0.536041 -0.389457 0.065000
v 0.497545 -0.361488 0.112583
v 0.444959 -0.323282 0.130000
v 0.392373 -0.285076 0.112583
v 0.353878 -0.257107 0.065000
v 0.339787 -0.246870 0.000000
v 0.353878 -0.257107 -0.065000
v 0.392373 -0.285076 -0.112583
v 0.444959 -0.323282 -0.130000
v 0.497545 -0.361488 -0.112583
v 0.536041 -0.389457 -0.065000
v 0.605884 -0.308714 0.000000
v 0.590366 -0.300807 0.065000
v 0.547969 -0.279204 0.112583
v 0.490054 -0.249695 0.130000
v 0.432138 -0.220185 0.112583
v 0.389741 -0.198583 0.065000
v 0.374223 -0.190676 0.000000
v 0.389741 -0.198583 -0.065000
v 0.432138 -0.220185 -0.112583
v 0.490054 -0.249695 -0.130000
v 0.547969 -0.279204 -0.112583
v 0.590366 -0.300807 -0.065000
v 0.646718 -0.210132 0.000000
v 0.630154 -0.204750 0.065000
v 0.584900 -0.190045 0.112583
v 0.523081 -0.169959 0.130000
v 0.461262 -0.149873 0.112583
v 0.416008 -0.135169 0.065000
v 0.399444 -0.129787 0.000000
v 0.416008 -0.135169 -0.065000
v 0.461262 -0.149873 -0.112583
v 0.523081 -0.169959 -0.130000
v 0.584900 -0.190045 -0.112583
v 0.630154 -0.204750 -0.065000
v 0.671628 -0.106375 0.000000
v 0.654426 -0.103651 0.065000
v 0.607428 -0.096207 0.112583
v 0.543229 -0.086039 0.130000
v 0.479029 -0.075871 0.112583
v 0.432031 -0.068427 0.065000
v 0.414829 -0.065702 0.000000
v 0.432031 -0.068427 -0.065000
v 0.479029 -0.075871 -0.112583
v 0.543229 -0.086039 -0.130000
v 0.607428 -0.096207 -0.112583
v 0.654426 -0.103651 -0.065000
vn 1.000000 0.000000 0.000000
vn 0.866025 0.000000 0.500000
vn 0.500000 0.000000 0.866025
vn 0.000000 0.000000 1.000000
vn -0.500000 -0.000000 0.866025
vn -0.866025 -0.000000 0.500000
vn -1.000000 -0.000000 0.000000
vn -0.866025 -0.000000 -0.500000
vn -0.500000 -0.000000 -0.866025
vn -0.000000 -0.000000 -1.000000
vn 0.500000 0.000000 -0.866025
vn 0.866025 0.000000 -0.500000
vn 0.987688 0.156434 0.000000
vn 0.855363 0.135476 0.500000
vn 0.493844 0.078217 0.866025
vn 0.000000 0.000000 1.000000
vn -0.493844 -0.078217 0.866025
vn -0.855363 -0.135476 0.500000
vn -0.987688 -0.156434 0.000000
vn -0.855363 -0.135476 -0.500000
vn -0.493844 -0.078217 -0.866025
vn -0.000000 -0.000000 -1.000000
vn 0.493844 0.078217 -0.866025
vn 0.855363 0.135476 -0.500000
vn 0.951057 0.309017 0.000000
vn 0.823639 0.267617 0.500000
vn 0.475528 0.154508 0.866025
vn 0.000000 0.000000 1.000000
vn -0.475528 -0.154508 0.866025
vn -0.823639 -0.267617 0.500000
vn -0.951057 -0.309017 0.000000
vn -0.823639 -0.267617 -0.500000
vn -0.475528 -0.154508 -0.866025
vn -0.000000 -0.000000 -1.000000
vn 0.475528 0.154508 -0.866025
vn 0.823639 0.267617 -0.500000
vn 0.891007 0.453990 0.000000
vn 0.771634 0.393167 0.500000
vn 0.445503 0.226995 0.866025
vn 0.000000 0.000000 1.000000
vn -0.445503 -0.226995 0.866025
vn -0.771634 -0.393167 0.500000
vn -0.891007 -0.453990 0.000000
vn -0.771634 -0.393167 -0.500000
vn -0.445503 -0.226995 -0.866025
vn -0.000000 -0.000000 -1.000000
vn 0.445503 0.226995 -0.866025
vn 0.771634 0.393167 -0.500000
vn 0.809017 0.587785 0.000000
vn 0.700629 0.509037 0.500000
vn 0.404508 0.293893 0.866025
vn 0.000000 0.000000 1.000000
vn -0.404508 -0.293893 0.866025
vn -0.700629 -0.509037 0.500000
vn -0.809017 -0.587785 0.000000
vn -0.700629 -0.509037 -0.500000
vn -0.404508 -0.293893 -0.866025
vn -0.000000 -0.000000 -1.000000
vn 0.404508 0.293893 -0.866025
vn 0.700629 0.509037 -0.500000
vn 0.707107 0.707107 0.000000
vn 0.612372 0.612372 0.500000
vn 0.353553 0.353553 0.866025
vn 0.000000 0.000000 1.000000
vn -0.353553 -0.353553 0.866025
vn -0.612372 -0.612372 0.500000
vn -0.707107 -0.707107 0.000000
vn -0.612372 -0.612372 -0.500000
vn -0.353553 -0.353553 -0.866025
vn -0.000000 -0.000000 -1.000000
vn 0.353553 0.353553 -0.866025
vn 0.612372 0.612372 -0.500000
vn 0.587785 0.809017 0.000000
vn 0.509037 0.700629 0.500000
vn 0.293893 0.404508 0.866025
vn 0.000000 0.000000 1.000000
vn -0.293893 -0.404508 0.866025
vn -0.509037 -0.700629 0.500000
vn -0.587785 -0.809017 0.000000
vn -0.509037 -0.700629 -0.500000
vn -0.293893 -0.404508 -0.866025
vn -0.000000 -0.000000 -1.000000
vn 0.293893 0.404508 -0.866025
vn 0.509037 0.700629 -0.500000
vn 0.453990 0.891007 0.000000
vn 0.393167 0.771634 0.500000
vn 0.226995 0.445503 0.866025
vn 0.000000 0.000000 1.000000
vn -0.226995 -0.445503 0.866025
vn -0.393167 -0.771634 0.500000
vn -0.453990 -0.891007 0.000000
vn -0.393167 -0.771634 -0.500000
vn -0.226995 -0.445503 -0.866025
vn -0.000000 -0.000000 -1.000000
vn 0.226995 0.445503 -0.866025
vn 0.393167 0.771634 -0.500000
vn 0.309017 0.951057 0.000000
vn 0.267617 0.823639 0.500000
vn 0.154508 0.475528 0.866025
vn 0.000000 0.000000 1.000000
vn -0.154508 -0.475528 0.866025
vn -0.267617 -0.823639 0.500000
vn -0.309017 -0.951057 0.000000
vn -0.267617 -0.823639 -0.500000
vn -0.154508 -0.475528 -0.866025
vn -0.000000 -0.000000 -1.000000
vn 0.154508 0.475528 -0.866025
vn 0.267617 0.823639 -0.500000
vn 0.156434 0.987688 0.000000
vn 0.135476 0.855363 0.500000
vn 0.078217 0.493844 0.866025
vn 0.000000 0.000000 1.000000
vn -0.078217 -0.493844 0.866025
vn -0.135476 -0.855363 0.500000
vn -0.156434 -0.987688 0.000000
vn -0.135476 -0.855363 -0.500000
vn -0.078217 -0.493844 -0.866025
vn -0.000000 -0.000000 -1.000000
vn 0.078217 0.493844 -0.866025
vn 0.135476 0.855363 -0.500000
vn 0.000000 1.000000 0.000000
vn 0.000000 0.866025 0.500000
vn 0.000000 0.500000 0.866025
vn 0.000000 0.000000 1.000000
vn -0.000000 -0.500000 0.866025
vn -0.000000 -0.866025 0.500000
vn -0.000000 -1.000000 0.000000
vn -0.000000 -0.866025 -0.500000
vn -0.000000 -0.500000 -0.866025
vn -0.000000 -0.000000 -1.000000
vn 0.000000 0.500000 -0.866025
vn 0.000000 0.866025 -0.500000
vn -0.156434 0.987688 0.000000
vn -0.135476 0.855363 0.500000
vn -0.078217 0.493844 0.866025
vn -0.000000 0.000000 1.000000
vn 0.078217 -0.493844 0.866025
vn 0.135476 -0.855363 0.500000
vn 0.156434 -0.987688 0.000000
vn 0.135476 -0.855363 -0.500000
vn 0.078217 -0.493844 -0.866025
vn 0.000000 -0.000000 -1.000000
vn -0.078217 0.493844 -0.866025
vn -0.135476 0.855363 -0.500000
vn -0.309017 0.951057 0.000000
vn -0.267617 0.823639 0.500000
vn -0.154508 0.475528 0.866025
vn -0.000000 0.000000 1.000000
vn 0.154508 -0.475528 0.866025
vn 0.267617 -0.823639 0.500000
vn 0.309017 -0.951057 0.000000
vn 0.267617 -0.823639 -0.500000
vn 0.154508 -0.475528 -0.866025
vn 0.000000 -0.000000 -1.000000
vn -0.154508 0.475528 -0.866025
vn -0.267617 0.823639 -0.500000
vn -0.453990 0.891007 0.000000
vn -0.393167 0.771634 0.500000
vn -0.226995 0.445503 0.866025
vn -0.000000 0.000000 1.000000
vn 0.226995 -0.445503 0.866025
vn 0.393167 -0.771634 0.500000
vn 0.453990 -0.891007 0.000000
vn 0.393167 -0.771634 -0.500000
vn 0.226995 -0.445503 -0.866025
vn 0.000000 -0.000000 -1.000000
vn -0.226995 0.445503 -0.866025
vn -0.393167 0.771634 -0.500000
vn -0.587785 0.809017 0.000000
vn -0.509037 0.700629 0.500000
vn -0.293893 0.404508 0.866025
vn -0.000000 0.000000 1.000000
vn 0.293893 -0.404508 0.866025
vn 0.509037 -0.700629 0.500000
vn 0.587785 -0.809017 0.000000
vn 0.509037 -0.700629 -0.500000
vn 0.293893 -0.404508 -0.866025
vn 0.000000 -0.000000 -1.000000
vn -0.293893 0.404508 -0.866025
vn -0.509037 0.700629 -0.500000
vn -0.707107 0.707107 0.000000
vn -0.612372 0.612372 0.500000
vn -0.353553 0.353553 0.866025
vn -0.000000 0.000000 1.000000
vn 0.353553 -0.353553 0.866025
vn 0.612372 -0.612372 0.500000
vn 0.707107 -0.707107 0.000000
vn 0.612372 -0.612372 -0.500000
vn 0.353553 -0.353553 -0.866025
vn 0.000000 -0.000000 -1.000000
vn -0.353553 0.353553 -0.866025
vn -0.612372 0.612372 -0.500000
vn -0.809017 0.587785 0.000000
vn -0.700629 0.509037 0.500000
vn -0.404508 0.293893 0.866025
vn -0.000000 0.000000 1.000000
vn 0.404508 -0.293893 0.866025
vn 0.700629 -0.509037 0.500000
vn 0.809017 -0.587785 0.000000
vn 0.700629 -0.509037 -0.500000
vn 0.404508 -0.293893 -0.866025
vn 0.000000 -0.000000 -1.000000
vn -0.404508 0.293893 -0.866025
vn -0.700629 0.509037 -0.500000
vn -0.891007 0.453990 0.000000
vn -0.771634 0.393167 0.500000
vn -0.445503 0.226995 0.866025
vn -0.000000 0.000000 1.000000
vn 0.445503 -0.226995 0.866025
vn 0.771634 -0.393167 0.500000
vn 0.891007 -0.453990 0.000000
vn 0.771634 -0.393167 -0.500000
vn 0.445503 -0.226995 -0.866025
vn 0.000000 -0.000000 -1.000000
vn -0.445503 0.226995 -0.866025
vn -0.771634 0.393167 -0.500000
vn -0.951057 0.309017 0.000000
vn -0.823639 0.267617 0.500000
vn -0.475528 0.154508 0.866025
vn -0.000000 0.000000 1.000000
vn 0.475528 -0.154508 0.866025
vn 0.823639 -0.267617 0.500000
vn 0.951057 -0.309017 0.000000
vn 0.823639 -0.267617 -0.500000
vn 0.475528 -0.154508 -0.866025
vn 0.000000 -0.000000 -1.000000
vn -0.475528 0.154508 -0.866025
vn -0.823639 0.267617 -0.500000
vn -0.987688 0.156434 0.000000
vn -0.855363 0.135476 0.500000
vn -0.493844 0.078217 0.866025
vn -0.000000 0.000000 1.000000
vn 0.493844 -0.078217 0.866025
vn 0.855363 -0.135476 0.500000
vn 0.987688 -0.156434 0.000000
vn 0.855363 -0.135476 -0.500000
vn 0.493844 -0.078217 -0.866025
vn 0.000000 -0.000000 -1.000000
vn -0.493844 0.078217 -0.866025
vn -0.855363 0.135476 -0.500000
vn -1.000000 0.000000 0.000000
vn -0.866025 0.000000 0.500000
vn -0.500000 0.000000 0.866025
vn -0.000000 0.000000 1.000000
vn 0.500000 -0.000000 0.866025
vn 0.866025 -0.000000 0.500000
vn 1.000000 -0.000000 0.000000
vn 0.866025 -0.000000 -0.500000
vn 0.500000 -0.000000 -0.866025
vn 0.000000 -0.000000 -1.000000
vn -0.500000 0.000000 -0.866025
vn -0.866025 0.000000 -0.500000
vn -0.987688 -0.156434 0.000000
vn -0.855363 -0.135476 0.500000
vn -0.493844 -0.078217 0.866025
vn -0.000000 -0.000000 1.000000
vn 0.493844 0.078217 0.866025
vn 0.855363 0.135476 0.500000
vn 0.987688 0.156434 0.000000
vn 0.855363 0.135476 -0.500000
vn 0.493844 0.078217 -0.866025
vn 0.000000 0.000000 -1.000000
vn -0.493844 -0.078217 -0.866025
vn -0.855363 -0.135476 -0.500000
vn -0.951057 -0.309017 0.000000
vn -0.823639 -0.267617 0.500000
vn -0.475528 -0.154508 0.866025
vn -0.000000 -0.000000 1.000000
vn 0.475528 0.154508 0.866025
vn 0.823639 0.267617 0.500000
vn 0.951057 0.309017 0.000000
vn 0.823639 0.267617 -0.500000
vn 0.475528 0.154508 -0.866025
vn 0.000000 0.000000 -1.000000
vn -0.475528 -0.154508 -0.866025
vn -0.823639 -0.267617 -0.500000
vn -0.891007 -0.453990 0.000000
vn -0.771634 -0.393167 0.500000
vn -0.445503 -0.226995 0.866025
vn -0.000000 -0.000000 1.000000
vn 0.445503 0.226995 0.866025
vn 0.771634 0.393167 0.500000
vn 0.891007 0.453990 0.000000
vn 0.771634 0.393167 -0.500000
vn 0.445503 0.226995 -0.866025
vn 0.000000 0.000000 -1.000000
vn -0.445503 -0.226995 -0.866025
vn -0.771634 -0.393167 -0.500000
vn -0.809017 -0.587785 0.000000
vn -0.700629 -0.509037 0.500000
vn -0.404508 -0.293893 0.866025
vn -0.000000 -0.000000 1.000000
vn 0.404508 0.293893 0.866025
vn 0.700629 0.509037 0.500000
vn 0.809017 0.587785 0.000000
vn 0.700629 0.509037 -0.500000
vn 0.404508 0.293893 -0.866025
vn 0.000000 0.000000 -1.000000
vn -0.404508 -0.293893 -0.866025
vn -0.700629 -0.509037 -0.500000
vn -0.707107 -0.707107 0.000000
vn -0.612372 -0.612372 0.500000
vn -0.353553 -0.353553 0.866025
vn -0.000000 -0.000000 1.000000
vn 0.353553 0.353553 0.866025
vn 0.612372 0.612372 0.500000
vn 0.707107 0.707107 0.000000
vn 0.612372 0.612372 -0.500000
vn 0.353553 0.353553 -0.866025
vn 0.000000 0.000000 -1.000000
vn -0.353553 -0.353553 -0.866025
vn -0.612372 -0.612372 -0.500000
vn -0.587785 -0.809017 0.000000
vn -0.509037 -0.700629 0.500000
vn -0.293893 -0.404508 0.866025
vn -0.000000 -0.000000 1.000000
vn 0.293893 0.404508 0.866025
vn 0.509037 0.700629 0.500000
vn 0.587785 0.809017 0.000000
vn 0.509037 0.700629 -0.500000
vn 0.293893 0.404508 -0.866025
vn 0.000000 0.000000 -1.000000
vn -0.293893 -0.404508 -0.866025
vn -0.509037 -0.700629 -0.500000
vn -0.453990 -0.891007 0.000000
vn -0.393167 -0.771634 0.500000
vn -0.226995 -0.445503 0.866025
vn -0.000000 -0.000000 1.000000
vn 0.226995 0.445503 0.866025
vn 0.393167 0.771634 0.500000
vn 0.453990 0.891007 0.000000
vn 0.393167 0.771634 -0.500000
vn 0.226995 0.445503 -0.866025
vn 0.000000 0.000000 -1.000000
vn -0.226995 -0.445503 -0.866025
vn -0.393167 -0.771634 -0.500000
vn -0.309017 -0.951057 0.000000
vn -0.267617 -0.823639 0.500000
vn -0.154508 -0.475528 0.866025
vn -0.000000 -0.000000 1.000000
vn 0.154508 0.475528 0.866025
vn 0.267617 0.823639 0.500000
vn 0.309017 0.951057 0.000000
vn 0.267617 0.823639 -0.500000
vn 0.154508 0.475528 -0.866025
vn 0.000000 0.000000 -1.000000
vn -0.154508 -0.475528 -0.866025
vn -0.267617 -0.823639 -0.500000
vn -0.156434 -0.987688 0.000000
vn -0.135476 -0.855363 0.500000
vn -0.078217 -0.493844 0.866025
vn -0.000000 -0.000000 1.000000
vn 0.078217 0.493844 0.866025
vn 0.135476 0.855363 0.500000
vn 0.156434 0.987688 0.000000
vn 0.135476 0.855363 -0.500000
vn 0.078217 0.493844 -0.866025
vn 0.000000 0.000000 -1.000000
vn -0.078217 -0.493844 -0.866025
vn -0.135476 -0.855363 -0.500000
vn -0.000000 -1.000000 0.000000
vn -0.000000 -0.866025 0.500000
vn -0.000000 -0.500000 0.866025
vn -0.000000 -0.000000 1.000000
vn 0.000000 0.500000 0.866025
vn 0.000000 0.866025 0.500000
vn 0.000000 1.000000 0.000000
vn 0.000000 0.866025 -0.500000
vn 0.000000 0.500000 -0.866025
vn 0.000000 0.000000 -1.000000
vn -0.000000 -0.500000 -0.866025
vn -0.000000 -0.866025 -0.500000
vn 0.156434 -0.987688 0.000000
vn 0.135476 -0.855363 0.500000
vn 0.078217 -0.493844 0.866025
vn 0.000000 -0.000000 1.000000
vn -0.078217 0.493844 0.866025
vn -0.135476 0.855363 0.500000
vn -0.156434 0.987688 0.000000
vn -0.135476 0.855363 -0.500000
vn -0.078217 0.493844 -0.866025
vn -0.000000 0.000000 -1.000000
vn 0.078217 -0.493844 -0.866025
vn 0.135476 -0.855363 -0.500000
vn 0.309017 -0.951057 0.000000
vn 0.267617 -0.823639 0.500000
vn 0.154508 -0.475528 0.866025
vn 0.000000 -0.000000 1.000000
vn -0.154508 0.475528 0.866025
vn -0.267617 0.823639 0.500000
vn -0.309017 0.951057 0.000000
vn -0.267617 0.823639 -0.500000
vn -0.154508 0.475528 -0.866025
vn -0.000000 0.000000 -1.000000
vn 0.154508 -0.475528 -0.866025
vn 0.267617 -0.823639 -0.500000
vn 0.453990 -0.891007 0.000000
vn 0.393167 -0.771634 0.500000
vn 0.226995 -0.445503 0.866025
vn 0.000000 -0.000000 1.000000
vn -0.226995 0.445503 0.866025
vn -0.393167 0.771634 0.500000
vn -0.453990 0.891007 0.000000
vn -0.393167 0.771634 -0.500000
vn -0.226995 0.445503 -0.866025
vn -0.000000 0.000000 -1.000000
vn 0.226995 -0.445503 -0.866025
vn 0.393167 -0.771634 -0.500000
vn 0.587785 -0.809017 0.000000
vn 0.509037 -0.700629 0.500000
vn 0.293893 -0.404508 0.866025
vn 0.000000 -0.000000 1.000000
vn -0.293893 0.404508 0.866025
vn -0.509037 0.700629 0.500000
vn -0.587785 0.809017 0.000000
vn -0.509037 0.700629 -0.500000
vn -0.293893 0.404508 -0.866025
vn -0.000000 0.000000 -1.000000
vn 0.293893 -0.404508 -0.866025
vn 0.509037 -0.700629 -0.500000
vn 0.707107 -0.707107 0.000000
vn 0.612372 -0.612372 0.500000
vn 0.353553 -0.353553 0.866025
vn 0.000000 -0.000000 1.000000
vn -0.353553 0.353553 0.866025
vn -0.612372 0.612372 0.500000
vn -0.707107 0.707107 0.000000
vn -0.612372 0.612372 -0.500000
vn -0.353553 0.353553 -0.866025
vn -0.000000 0.000000 -1.000000
vn 0.353553 -0.353553 -0.866025
vn 0.612372 -0.612372 -0.500000
vn 0.809017 -0.587785 0.000000
vn 0.700629 -0.509037 0.500000
vn 0.404508 -0.293893 0.866025
vn 0.000000 -0.000000 1.000000
vn -0.404508 0.293893 0.866025
vn -0.700629 0.509037 0.500000
vn -0.809017 0.587785 0.000000
vn -0.700629 0.509037 -0.500000
vn -0.404508 0.293893 -0.866025
vn -0.000000 0.000000 -1.000000
vn 0.404508 -0.293893 -0.866025
vn 0.700629 -0.509037 -0.500000
vn 0.891007 -0.453990 0.000000
vn 0.771634 -0.393167 0.500000
vn 0.445503 -0.226995 0.866025
vn 0.000000 -0.000000 1.000000
vn -0.445503 0.226995 0.866025
vn -0.771634 0.393167 0.500000
vn -0.891007 0.453990 0.000000
vn -0.771634 0.393167 -0.500000
vn -0.445503 0.226995 -0.866025
vn -0.000000 0.000000 -1.000000
vn 0.445503 -0.226995 -0.866025
vn 0.771634 -0.393167 -0.500000
vn 0.951057 -0.309017 0.000000
vn 0.823639 -0.267617 0.500000
vn 0.475528 -0.154508 0.866025
vn 0.000000 -0.000000 1.000000
vn -0.475528 0.154508 0.866025
vn -0.823639 0.267617 0.500000
vn -0.951057 0.309017 0.000000
vn -0.823639 0.267617 -0.500000
vn -0.475528 0.154508 -0.866025
vn -0.000000 0.000000 -1.000000
vn 0.475528 -0.154508 -0.866025
vn 0.823639 -0.267617 -0.500000
vn 0.987688 -0.156434 0.000000
vn 0.855363 -0.135476 0.500000
vn 0.493844 -0.078217 0.866025
vn 0.000000 -0.000000 1.000000
vn -0.493844 0.078217 0.866025
vn -0.855363 0.135476 0.500000
vn -0.987688 0.156434 0.000000
vn -0.855363 0.135476 -0.500000
vn -0.493844 0.078217 -0.866025
vn -0.000000 0.000000 -1.000000
vn 0.493844 -0.078217 -0.866025
vn 0.855363 -0.135476 -0.500000
f 1//1 13//13 14//14
f 1//1 14//14 2//2
f 2//2 14//14 15//15
f 2//2 15//15 3//3
f 3//3 15//15 16//16
f 3//3 16//16 4//4
f 4//4 16//16 17//17
f 4//4 17//17 5//5
f 5//5 17//17 18//18
f 5//5 18//18 6//6
f 6//6 18//18 19//19
f 6//6 19//19 7//7
f 7//7 19//19 20//20
f 7//7 20//20 8//8
f 8//8 20//20 21//21
f 8//8 21//21 9//9
f 9//9 21//21 22//22
f 9//9 22//22 10//10
f 10//10 22//22 23//23
f 10//10 23//23 11//11
f 11//11 23//23 24//24
f 11//11 24//24 12//12
f 12//12 24//24 13//13
f 12//12 13//13 1//1
f 13//13 25//25 26//26
f 13//13 26//26 14//14
f 14//14 26//26 27//27
f 14//14 27//27 15//15
f 15//15 27//27 28//28
f 15//15 28//28 16//16
f 16//16 28//28 29//29
f 16//16 29//29 17//17
f 17//17 29//29 30//30
f 17//17 30//30 18//18
f 18//18 30//30 31//31
f 18//18 31//31 19//19
f 19//19 31//31 32//32
f 19//19 32//32 20//20
f 20//20 32//32 33//33
f 20//20 33//33 21//21
f 21//21 33//33 34//34
f 21//21 34//34 22//22
f 22//22 34//34 35//35
f 22//22 35//35 23//23
f 23//23 35//35 36//36
f 23//23 36//36 24//24
f 24//24 36//36 25//25
f 24//24 25//25 13//13
f 25//25 37//37 38//38
f 25//25 38//38 26//26
f 26//26 38//38 39//39
f 26//26 39//39 27//27
f 27//27 39//39 40//40
f 27//27 40//40 28//28
f 28//28 40//40 41//41
f 28//28 41//41 29//29
f 29//29 41//41 42//42
f 29//29 42//42 30//30
f 30//30 42//42 43//43
f 30//30 43//43 31//31
f 31//31 43//43 44//44
f 31//31 44//44 32//32
f 32//32 44//44 45//45
f 32//32 45//45 33//33
f 33//33 45//45 46//46
f 33//33 46//46 34//34
f 34//34 46//46 47//47
f 34//34 47//47 35//35
f 35//35 47//47 48//48
f 35//35 48//48 36//36
f 36//36 48//48 37//37
f 36//36 37//37 25//25
f 37//37 49//49 50//50
f 37//37 50//50 38//38
f 38//38 50//50 51//51
f 38//38 51//51 39//39
f 39//39 51//51 52//52
f 39//39 52//52 40//40
f 40//40 52//52 53//53
f 40//40 53//53 41//41
f 41//41 53//53 54//54
f 41//41 54//54 42//42
f 42//42 54//54 55//55
f 42//42 55//55 43//43
f 43//43 55//55 56//56
f 43//43 56//56 44//44
f 44//44 56//56 57//57
f 44//44 57//57 45//45
f 45//45 57//57 58//58
f 45//45 58//58 46//46
f 46//46 58//58 59//59
f 46//46 59//59 47//47
f 47//47 59//59 60//60
f 47//47 60//60 48//48
f 48//48 60//60 49//49
f 48//48 49//49 37//37
f 49//49 61//61 62//62
f 49//49 62//62 50//50
f 50//50 62//62 63//63
f 50//50 63//63 51//51
f 51//51 63//63 64//64
f 51//51 64//64 52//52
f 52//52 64//64 65//65
f 52//52 65//65 53//53
f 53//53 65//65 66//66
f 53//53 66//66 54//54
f 54//54 66//66 67//67
f 54//54 67//67 55//55
f 55//55 67//67 68//68
f 55//55 68//68 56//56
f 56//56 68//68 69//69
f 56//56 69//69 57//57
f 57//57 69//69 70//70
f 57//57 70//70 58//58
f 58//58 70//70 71//71
f 58//58 71//71 59//59
f 59//59 71//71 72//72
f 59//59 72//72 60//60
f 60//60 72//72 61//61
f 60//60 61//61 49//49
f 61//61 73//73 74//74
f 61//61 74//74 62//62
f 62//62 74//74 75//75
f 62//62 75//75 63//63
f 63//63 75//75 76//76
f 63//63 76//76 64//64
f 64//64 76//76 77//77
f 64//64 77//77 65//65
f 65//65 77//77 78//78
f 65//65 78//78 66//66
f 66//66 78//78 79//79
f 66//66 79//79 67//67
f 67//67 79//79 80//80
f 67//67 80//80 68//68
f 68//68 80//80 81//81
f 68//68 81//81 69//69
f 69//69 81//81 82//82
f 69//69 82//82 70//70
f 70//70 82//82 83//83
f 70//70 83//83 71//71
f 71//71 83//83 84//84
f 71//71 84//84 72//72
f 72//72 84//84 73//73
f 72//72 73//73 61//61
f 73//73 85//85 86//86
f 73//73 86//86 74//74
f 74//74 86//86 87//87
f 74//74 87//87 75//75
f 75//75 87//87 88//88
f 75//75 88//88 76//76
f 76//76 88//88 89//89
f 76//76 89//89 77//77
f 77//77 89//89 90//90
f 77//77 90//90 78//78
f 78//78 90//90 91//91
f 78//78 91//91 79//79
f 79//79 91//91 92//92
f 79//79 92//92 80//80
f 80//80 92//92 93//93
f 80//80 93//93 81//81
f 81//81 93//93 94//94
f 81//81 94//94 82//82
f 82//82 94//94 95//95
f 82//82 95//95 83//83
f 83//83 95//95 96//96
f 83//83 96//96 84//84
f 84//84 96//96 85//85
f 84//84 85//85 73//73
f 85//85 97//97 98//98
f 85//85 98//98 86//86
f 86//86 98//98 99//99
f 86//86 99//99 87//87
f 87//87 99//99 100//100
f 87//87 100//100 88//88
f 88//88 100//100 101//101
f 88//88 101//101 89//89
f 89//89 101//101 102//102
f 89//89 102//102 90//90
f 90//90 102//102 103//103
f 90//90 103//103 91//91
f 91//91 103//103 104//104
f 91//91 104//104 92//92
f 92//92 104//104 105//105
f 92//92 105//105 93//93
f 93//93 105//105 106//106
f 93//93 106//106 94//94
f 94//94 106//106 107//107
f 94//94 107//107 95//95
f 95//95 107//107 108//108
f 95//95 108//108 96//96
f 96//96 108//108 97//97
f 96//96 97//97 85//85
f 97//97 109//109 110//110
f 97//97 110//110 98//98
f 98//98 110//110 111//111
f 98//98 111//111 99//99
f 99//99 111//111 112//112
f 99//99 112//112 100//100
f 100//100 112//112 113//113
f 100//100 113//113 101//101
f 101//101 113//113 114//114
f 101//101 114//114 102//102
f 102//102 114//114 115//115
f 102//102 115//115 103//103
f 103//103 115//115 116//116
f 103//103 116//116 104//104
f 104//104 116//116 117//117
f 104//104 117//117 105//105
f 105//105 117//117 118//118
f 105//105 118//118 106//106
f 106//106 118//118 119//119
f 106//106 119//119 107//107
f 107//107 119//119 120//120
f 107//107 120//120 108//108
f 108//108 120//120 109//109
f 108//108 109//109 97//97
f 109//109 121//121 122//122
f 109//109 122//122 110//110
f 110//110 122//122 123//123
f 110//110 123//123 111//111
f 111//111 123//123 124//124
f 111//111 124//124 112//112
f 112//112 124//124 125//125
f 112//112 125//125 113//113
f 113//113 125//125 126//126
f 113//113 126//126 114//114
f 114//114 126//126 127//127
f 114//114 127//127 115//115
f 115//115 127//127 128//128
f 115//115 128//128 116//116
f 116//116 128//128 129//129
f 116//116 129//129 117//117
f 117//117 129//129 130//130
f 117//117 130//130 118//118
f 118//118 130//130 131//131
f 118//118 131//131 119//119
f 119//119 131//131 132//132
f 119//119 132//132 120//120
f 120//120 132//132 121//121
f 120//120 121//121 109//109
f 121//121 133//133 134//134
f 121//121 134//134 122//122
f 122//122 134//134 135//135
f 122//122 135//135 123//123
f 123//123 135//135 136//136
f 123//123 136//136 124//124
f 124//124 136//136 137//137
f 124//124 137//137 125//125
f 125//125 137//137 138//138
f 125//125 138//138 126//126
f 126//126 138//138 139//139
f 126//126 139//139 127//127
f 127//127 139//139 140//140
f 127//127 140//140 128//128
f 128//128 140//140 141//141
f 128//128 141//141 129//129
f 129//129 141//141 142//142
f 129//129 142//142 130//130
f 130//130 142//142 143//143
f 130//130 143//143 131//131
f 131//131 143//143 144//144
f 131//131 144//144 132//132
f 132//132 144//144 133//133
f 132//132 133//133 121//121
f 133//133 145//145 146//146
f 133//133 146//146 134//134
f 134//134 146//146 147//147
f 134//134 147//147 135//135
f 135//135 147//147 148//148
f 135//135 148//148 136//136
f 136//136 148//148 149//149
f 136//136 149//149 137//137
f 137//137 149//149 150//150
f 137//137 150//150 138//138
f 138//138 150//150 151//151
f 138//138 151//151 139//139
f 139//139 151//151 152//152
f 139//139 152//152 140//140
f 140//140 152//152 153//153
f 140//140 153//153 141//141
f 141//141 153//153 154//154
f 141//141 154//154 142//142
f 142//142 154//154 155//155
f 142//142 155//155 143//143
f 143//143 155//155 156//156
f 143//143 156//156 144//144
f 144//144 156//156 145//145
f 144//144 145//145 133//133
f 145//145 157//157 158//158
f 145//145 158//158 146//146
f 146//146 158//158 159//159
f 146//146 159//159 147//147
f 147//147 159//159 160//160
f 147//147 160//160 148//148
f 148//148 160//160 161//161
f 148//148 161//161 149//149
f 149//149 161//161 162//162
f 149//149 162//162 150//150
f 150//150 162//162 163//163
f 150//150 163//163 151//151
f 151//151 163//163 164//164
f 151//151 164//164 152//152
f 152//152 164//164 165//165
f 152//152 165//165 153//153
f 153//153 165//165 166//166
f 153//153 166//166 154//154
f 154//154 166//166 167//167
f 154//154 167//167 155//155
f 155//155 167//167 168//168
f 155//155 168//168 156//156
f 156//156 168//168 157//157
f 156//156 157//157 145//145
f 157//157 169//169 170//170
f 157//157 170//170 158//158
f 158//158 170//170 171//171
f 158//158 171//171 159//159
f 159//159 171//171 172//172
f 159//159 172//172 160//160
f 160//160 172//172 173//173
f 160//160 173//173 161//161
f 161//161 173//173 174//174
f 161//161 174//174 162//162
f 162//162 174//174 175//175
f 162//162 175//175 163//163
f 163//163 175//175 176//176
f 163//163 176//176 164//164
f 164//164 176//176 177//177
f 164//164 177//177 165//165
f 165//165 177//177 178//178
f 165//165 178//178 166//166
f 166//166 178//178 179//179
f 166//166 179//179 167//167
f 167//167 179//179 180//180
f 167//167 180//180 168//168
f 168//168 180//180 169//169
f 168//168 169//169 157//157
f 169//169 181//181 182//182
f 169//169 182//182 170//170
f 170//170 182//182 183//183
f 170//170 183//183 171//171
f 171//171 183//183 184//184
f 171//171 184//184 172//172
f 172//172 184//184 185//185
f 172//172 185//185 173//173
f 173//173 185//185 186//186
f 173//173 186//186 174//174
f 174//174 186//186 187//187
f 174//174 187//187 175//175
f 175//175 187//187 188//188
f 175//175 188//188 176//176
f 176//176 188//188 189//189
f 176//176 189//189 177//177
f 177//177 189//189 190//190
f 177//177 190//190 178//178
f 178//178 190//190 191//191
f 178//178 191//191 179//179
f 179//179 191//191 192//192
f 179//179 192//192 180//180
f 180//180 192//192 181//181
f 180//180 181//181 169//169
f 181//181 193//193 194//194
f 181//181 194//194 182//182
f 182//182 194//194 195//195
f 182//182 195//195 183//183
f 183//183 195//195 196//196
f 183//183 196//196 184//184
f 184//184 196//196 197//197
f 184//184 197//197 185//185
f 185//185 197//197 198//198
f 185//185 198//198 186//186
f 186//186 198//198 199//199
f 186//186 199//199 187//187
f 187//187 199//199 200//200
f 187//187 200//200 188//188
f 188//188 200//200 201//201
f 188//188 201//201 189//189
f 189//189 201//201 202//202
f 189//189 202//202 190//190
f 190//190 202//202 203//203
f 190//190 203//203 191//191
f 191//191 203//203 204//204
f 191//191 204//204 192//192
f 192//192 204//204 193//193
f 192//192 193//193 181//181
f 193//193 205//205 206//206
f 193//193 206//206 194//194
f 194//194 206//206 207//207
f 194//194 207//207 195//195
f 195//195 207//207 208//208
f 195//195 208//208 196//196
f 196//196 208//208 209//209
f 196//196 209//209 197//197
f 197//197 209//209 210//210
f 197//197 210//210 198//198
f 198//198 210//210 211//211
f 198//198 211//211 199//199
f 199//199 211//211 212//212
f 199//199 212//212 200//200
f 200//200 212//212 213//213
f 200//200 213//213 201//201
f 201//201 213//213 214//214
f 201//201 214//214 202//202
f 202//202 214//214 215//215
f 202//202 215//215 203//203
f 203//203 215//215 216//216
f 203//203 216//216 204//204
f 204//204 216//216 205//205
f 204//204 205//205 193//193
f 205//205 217//217 218//218
f 205//205 218//218 206//206
f 206//206 218//218 219//219
f 206//206 219//219 207//207
f 207//207 219//219 220//220
f 207//207 220//220 208//208
f 208//208 220//220 221//221
f 208//208 221//221 209//209
f 209//209 221//221 222//222
f 209//209 222//222 210//210
f 210//210 222//222 223//223
f 210//210 223//223 211//211
f 211//211 223//223 224//224
f 211//211 224//224 212//212
f 212//212 224//224 225//225
f 212//212 225//225 213//213
f 213//213 225//225 226//226
f 213//213 226//226 214//214
f 214//214 226//226 227//227
f 214//214 227//227 215//215
f 215//215 227//227 228//228
f 215//215 228//228 216//216
f 216//216 228//228 217//217
f 216//216 217//217 205//205
f 217//217 229//229 230//230
f 217//217 230//230 218//218
f 218//218 230//230 231//231
f 218//218 231//231 219//219
f 219//219 231//231 232//232
f 219//219 232//232 220//220
f 220//220 232//232 233//233
f 220//220 233//233 221//221
f 221//221 233//233 234//234
f 221//221 234//234 222//222
f 222//222 234//234 235//235
f 222//222 235//235 223//223
f 223//223 235//235 236//236
f 223//223 236//236 224//224
f 224//224 236//236 237//237
f 224//224 237//237 225//225
f 225//225 237//237 238//238
f 225//225 238//238 226//226
f 226//226 238//238 239//239
f 226//226 239//239 227//227
f 227//227 239//239 240//240
f 227//227 240//240 228//228
f 228//228 240//240 229//229
f 228//228 229//229 217//217
f 229//229 241//241 242//242
f 229//229 242//242 230//230
f 230//230 242//242 243//243
f 230//230 243//243 231//231
f 231//231 243//243 244//244
f 231//231 244//244 232//232
f 232//232 244//244 245//245
f 232//232 245//245 233//233
f 233//233 245//245 246//246
f 233//233 246//246 234//234
f 234//234 246//246 247//247
f 234//234 247//247 235//235
f 235//235 247//247 248//248
f 235//235 248//248 236//236
f 236//236 248//248 249//249
f 236//236 249//249 237//237
f 237//237 249//249 250//250
f 237//237 250//250 238//238
f 238//238 250//250 251//251
f 238//238 251//251 239//239
f 239//239 251//251 252//252
f 239//239 252//252 240//240
f 240//240 252//252 241//241
f 240//240 241//241 229//229
f 241//241 253//253 254//254
f 241//241 254//254 242//242
f 242//242 254//254 255//255
f 242//242 255//255 243//243
f 243//243 255//255 256//256
f 243//243 256//256 244//244
f 244//244 256//256 257//257
f 244//244 257//257 245//245
f 245//245 257//257 258//258
f 245//245 258//258 246//246
f 246//246 258//258 259//259
f 246//246 259//259 247//247
f 247//247 259//259 260//260
f 247//247 260//260 248//248
f 248//248 260//260 261//261
f 248//248 261//261 249//249
f 249//249 261//261 262//262
f 249//249 262//262 250//250
f 250//250 262//262 263//263
f 250//250 263//263 251//251
f 251//251 263//263 264//264
f 251//251 264//264 252//252
f 252//252 264//264 253//253
f 252//252 253//253 241//241
f 253//253 265//265 266//266
f 253//253 266//266 254//254
f 254//254 266//266 267//267
f 254//254 267//267 255//255
f 255//255 267//267 268//268
f 255//255 268//268 256//256
f 256//256 268//268 269//269
f 256//256 269//269 257//257
f 257//257 269//269 270//270
f 257//257 270//270 258//258
f 258//258 270//270 271//271
f 258//258 271//271 259//259
f 259//259 271//271 272//272
f 259//259 272//272 260//260
f 260//260 272//272 273//273
f 260//260 273//273 261//261
f 261//261 273//273 274//274
f 261//261 274//274 262//262
f 262//262 274//274 275//275
f 262//262 275//275 263//263
f 263//263 275//275 276//276
f 263//263 276//276 264//264
f 264//264 276//276 265//265
f 264//264 265//265 253//253
f 265//265 277//277 278//278
f 265//265 278//278 266//266
f 266//266 278//278 279//279
f 266//266 279//279 267//267
f 267//267 279//279 280//280
f 267//267 280//280 268//268
f 268//268 280//280 281//281
f 268//268 281//281 269//269
f 269//269 281//281 282//282
f 269//269 282//282 270//270
f 270//270 282//282 283//283
f 270//270 283//283 271//271
f 271//271 283//283 284//284
f 271//271 284//284 272//272
f 272//272 284//284 285//285
f 272//272 285//285 273//273
f 273//273 285//285 286//286
f 273//273 286//286 274//274
f 274//274 286//286 287//287
f 274//274 287//287 275//275
f 275//275 287//287 288//288
f 275//275 288//288 276//276
f 276//276 288//288 277//277
f 276//276 277//277 265//265
f 277//277 289//289 290//290
f 277//277 290//290 278//278
f 278//278 290//290 291//291
f 278//278 291//291 279//279
f 279//279 291//291 292//292
f 279//279 292//292 280//280
f 280//280 292//292 293//293
f 280//280 293//293 281//281
f 281//281 293//293 294//294
f 281//281 294//294 282//282
f 282//282 294//294 295//295
f 282//282 295//295 283//283
f 283//283 295//295 296//296
f 283//283 296//296 284//284
f 284//284 296//296 297//297
f 284//284 297//297 285//285
f 285//285 297//297 298//298
f 285//285 298//298 286//286
f 286//286 298//298 299//299
f 286//286 299//299 287//287
f 287//287 299//299 300//300
f 287//287 300//300 288//288
f 288//288 300//300 289//289
f 288//288 289//289 277//277
f 289//289 301//301 302//302
f 289//289 302//302 290//290
f 290//290 302//302 303//303
f 290//290 303//303 291//291
f 291//291 303//303 304//304
f 291//291 304//304 292//292
f 292//292 304//304 305//305
f 292//292 305//305 293//293
f 293//293 305//305 306//306
f 293//293 306//306 294//294
f 294//294 306//306 307//307
f 294//294 307//307 295//295
f 295//295 307//307 308//308
f 295//295 308//308 296//296
f 296//296 308//308 309//309
f 296//296 309//309 297//297
f 297//297 309//309 310//310
f 297//297 310//310 298//298
f 298//298 310//310 311//311
f 298//298 311//311 299//299
f 299//299 311//311 312//312
f 299//299 312//312 300//300
f 300//300 312//312 301//301
f 300//300 301//301 289//289
f 301//301 313//313 314//314
f 301//301 314//314 302//302
f 302//302 314//314 315//315
f 302//302 315//315 303//303
f 303//303 315//315 316//316
f 303//303 316//316 304//304
f 304//304 316//316 317//317
f 304//304 317//317 305//305
f 305//305 317//317 318//318
f 305//305 318//318 306//306
f 306//306 318//318 319//319
f 306//306 319//319 307//307
f 307//307 319//319 320//320
f 307//307 320//320 308//308
f 308//308 320//320 321//321
f 308//308 321//321 309//309
f 309//309 321//321 322//322
f 309//309 322//322 310//310
f 310//310 322//322 323//323
f 310//310 323//323 311//311
f 311//311 323//323 324//324
f 311//311 324//324 312//312
f 312//312 324//324 313//313
f 312//312 313//313 301//301
f 313//313 325//325 326//326
f 313//313 326//326 314//314
f 314//314 326//326 327//327
f 314//314 327//327 315//315
f 315//315 327//327 328//328
f 315//315 328//328 316//316
f 316//316 328//328 329//329
f 316//316 329//329 317//317
f 317//317 329//329 330//330
f 317//317 330//330 318//318
f 318//318 330//330 331//331
f 318//318 331//331 319//319
f 319//319 331//331 332//332
f 319//319 332//332 320//320
f 320//320 332//332 333//333
f 320//320 333//333 321//321
f 321//321 333//333 334//334
f 321//321 334//334 322//322
f 322//322 334//334 335//335
f 322//322 335//335 323//323
f 323//323 335//335 336//336
f 323//323 336//336 324//324
f 324//324 336//336 325//325
f 324//324 325//325 313//313
f 325//325 337//337 338//338
f 325//325 338//338 326//326
f 326//326 338//338 339//339
f 326//326 339//339 327//327
f 327//327 339//339 340//340
f 327//327 340//340 328//328
f 328//328 340//340 341//341
f 328//328 341//341 329//329
f 329//329 341//341 342//342
f 329//329 342//342 330//330
f 330//330 342//342 343//343
f 330//330 343//343 331//331
f 331//331 343//343 344//344
f 331//331 344//344 332//332
f 332//332 344//344 345//345
f 332//332 345//345 333//333
f 333//333 345//345 346//346
f 333//333 346//346 334//334
f 334//334 346//346 347//347
f 334//334 347//347 335//335
f 335//335 347//347 348//348
f 335//335 348//348 336//336
f 336//336 348//348 337//337
f 336//336 337//337 325//325
f 337//337 349//349 350//350
f 337//337 350//350 338//338
f 338//338 350//350 351//351
f 338//338 351//351 339//339
f 339//339 351//351 352//352
f 339//339 352//352 340//340
f 340//340 352//352 353//353
f 340//340 353//353 341//341
f 341//341 353//353 354//354
f 341//341 354//354 342//342
f 342//342 354//354 355//355
f 342//342 355//355 343//343
f 343//343 355//355 356//356
f 343//343 356//356 344//344
f 344//344 356//356 357//357
f 344//344 357//357 345//345
f 345//345 357//357 358//358
f 345//345 358//358 346//346
f 346//346 358//358 359//359
f 346//346 359//359 347//347
f 347//347 359//359 360//360
f 347//347 360//360 348//348
f 348//348 360//360 349//349
f 348//348 349//349 337//337
f 349//349 361//361 362//362
f 349//349 362//362 350//350
f 350//350 362//362 363//363
f 350//350 363//363 351//351
f 351//351 363//363 364//364
f 351//351 364//364 352//352
f 352//352 364//364 365//365
f 352//352 365//365 353//353
f 353//353 365//365 366//366
f 353//353 366//366 354//354
f 354//354 366//366 367//367
f 354//354 367//367 355//355
f 355//355 367//367 368//368
f 355//355 368//368 356//356
f 356//356 368//368 369//369
f 356//356 369//369 357//357
f 357//357 369//369 370//370
f 357//357 370//370 358//358
f 358//358 370//370 371//371
f 358//358 371//371 359//359
f 359//359 371//371 372//372
f 359//359 372//372 360//360
f 360//360 372//372 361//361
f 360//360 361//361 349//349
f 361//361 373//373 374//374
f 361//361 374//374 362//362
f 362//362 374//374 375//375
f 362//362 375//375 363//363
f 363//363 375//375 376//376
f 363//363 376//376 364//364
f 364//364 376//376 377//377
f 364//364 377//377 365//365
f 365//365 377//377 378//378
f 365//365 378//378 366//366
f 366//366 378//378 379//379
f 366//366 379//379 367//367
f 367//367 379//379 380//380
f 367//367 380//380 368//368
f 368//368 380//380 381//381
f 368//368 381//381 369//369
f 369//369 381//381 382//382
f 369//369 382//382 370//370
f 370//370 382//382 383//383
f 370//370 383//383 371//371
f 371//371 383//383 384//384
f 371//371 384//384 372//372
f 372//372 384//384 373//373
f 372//372 373//373 361//361
f 373//373 385//385 386//386
f 373//373 386//386 374//374
f 374//374 386//386 387//387
f 374//374 387//387 375//375
f 375//375 387//387 388//388
f 375//375 388//388 376//376
f 376//376 388//388 389//389
f 376//376 389//389 377//377
f 377//377 389//389 390//390
f 377//377 390//390 378//378
f 378//378 390//390 391//391
f 378//378 391//391 379//379
f 379//379 391//391 392//392
f 379//379 392//392 380//380
f 380//380 392//392 393//393
f 380//380 393//393 381//381
f 381//381 393//393 394//394
f 381//381 394//394 382//382
f 382//382 394//394 395//395
f 382//382 395//395 383//383
f 383//383 395//395 396//396
f 383//383 396//396 384//384
f 384//384 396//396 385//385
f 384//384 385//385 373//373
f 385//385 397//397 398//398
f 385//385 398//398 386//386
f 386//386 398//398 399//399
f 386//386 399//399 387//387
f 387//387 399//399 400//400
f 387//387 400//400 388//388
f 388//388 400//400 401//401
f 388//388 401//401 389//389
f 389//389 401//401 402//402
f 389//389 402//402 390//390
f 390//390 402//402 403//403
f 390//390 403//403 391//391
f 391//391 403//403 404//404
f 391//391 404//404 392//392
f 392//392 404//404 405//405
f 392//392 405//405 393//393
f 393//393 405//405 406//406
f 393//393 406//406 394//394
f 394//394 406//406 407//407
f 394//394 407//407 395//395
f 395//395 407//407 408//408
f 395//395 408//408 396//396
f 396//396 408//408 397//397
f 396//396 397//397 385//385
f 397//397 409//409 410//410
f 397//397 410//410 398//398
f 398//398 410//410 411//411
f 398//398 411//411 399//399
f 399//399 411//411 412//412
f 399//399 412//412 400//400
f 400//400 412//412 413//413
f 400//400 413//413 401//401
f 401//401 413//413 414//414
f 401//401 414//414 402//402
f 402//402 414//414 415//415
f 402//402 415//415 403//403
f 403//403 415//415 416//416
f 403//403 416//416 404//404
f 404//404 416//416 417//417
f 404//404 417//417 405//405
f 405//405 417//417 418//418
f 405//405 418//418 406//406
f 406//406 418//418 419//419
f 406//406 419//419 407//407
f 407//407 419//419 420//420
f 407//407 420//420 408//408
f 408//408 420//420 409//409
f 408//408 409//409 397//397
f 409//409 421//421 422//422
f 409//409 422//422 410//410
f 410//410 422//422 423//423
f 410//410 423//423 411//411
f 411//411 423//423 424//424
f 411//411 424//424 412//412
f 412//412 424//424 425//425
f 412//412 425//425 413//413
f 413//413 425//425 426//426
f 413//413 426//426 414//414
f 414//414 426//426 427//427
f 414//414 427//427 415//415
f 415//415 427//427 428//428
f 415//415 428//428 416//416
f 416//416 428//428 429//429
f 416//416 429//429 417//417
f 417//417 429//429 430//430
f 417//417 430//430 418//418
f 418//418 430//430 431//431
f 418//418 431//431 419//419
f 419//419 431//431 432//432
f 419//419 432//432 420//420
f 420//420 432//432 421//421
f 420//420 421//421 409//409
f 421//421 433//433 434//434
f 421//421 434//434 422//422
f 422//422 434//434 435//435
f 422//422 435//435 423//423
f 423//423 435//435 436//436
f 423//423 436//436 424//424
f 424//424 436//436 437//437
f 424//424 437//437 425//425
f 425//425 437//437 438//438
f 425//425 438//438 426//426
f 426//426 438//438 439//439
f 426//426 439//439 427//427
f 427//427 439//439 440//440
f 427//427 440//440 428//428
f 428//428 440//440 441//441
f 428//428 441//441 429//429
f 429//429 441//441 442//442
f 429//429 442//442 430//430
f 430//430 442//442 443//443
f 430//430 443//443 431//431
f 431//431 443//443 444//444
f 431//431 444//444 432//432
f 432//432 444//444 433//433
f 432//432 433//433 421//421
f 433//433 445//445 446//446
f 433//433 446//446 434//434
f 434//434 446//446 447//447
f 434//434 447//447 435//435
f 435//435 447//447 448//448
f 435//435 448//448 436//436
f 436//436 448//448 449//449
f 436//436 449//449 437//437
f 437//437 449//449 450//450
f 437//437 450//450 438//438
f 438//438 450//450 451//451
f 438//438 451//451 439//439
f 439//439 451//451 452//452
f 439//439 452//452 440//440
f 440//440 452//452 453//453
f 440//440 453//453 441//441
f 441//441 453//453 454//454
f 441//441 454//454 442//442
f 442//442 454//454 455//455
f 442//442 455//455 443//443
f 443//443 455//455 456//456
f 443//443 456//456 444//444
f 444//444 456//456 445//445
f 444//444 445//445 433//433
f 445//445 457//457 458//458
f 445//445 458//458 446//446
f 446//446 458//458 459//459
f 446//446 459//459 447//447
f 447//447 459//459 460//460
f 447//447 460//460 448//448
f 448//448 460//460 461//461
f 448//448 461//461 449//449
f 449//449 461//461 462//462
f 449//449 462//462 450//450
f 450//450 462//462 463//463
f 450//450 463//463 451//451
f 451//451 463//463 464//464
f 451//451 464//464 452//452
f 452//452 464//464 465//465
f 452//452 465//465 453//453
f 453//453 465//465 466//466
f 453//453 466//466 454//454
f 454//454 466//466 467//467
f 454//454 467//467 455//455
f 455//455 467//467 468//468
f 455//455 468//468 456//456
f 456//456 468//468 457//457
f 456//456 457//457 445//445
f 457//457 469//469 470//470
f 457//457 470//470 458//458
f 458//458 470//470 471//471
f 458//458 471//471 459//459
f 459//459 471//471 472//472
f 459//459 472//472 460//460
f 460//460 472//472 473//473
f 460//460 473//473 461//461
f 461//461 473//473 474//474
f 461//461 474//474 462//462
f 462//462 474//474 475//475
f 462//462 475//475 463//463
f 463//463 475//475 476//476
f 463//463 476//476 464//464
f 464//464 476//476 477//477
f 464//464 477//477 465//465
f 465//465 477//477 478//478
f 465//465 478//478 466//466
f 466//466 478//478 479//479
f 466//466 479//479 467//467
f 467//467 479//479 480//480
f 467//467 480//480 468//468
f 468//468 480//480 469//469
f 468//468 469//469 457//457
f 469//469 1//1 2//2
f 469//469 2//2 470//470
f 470//470 2//2 3//3
f 470//470 3//3 471//471
f 471//471 3//3 4//4
f 471//471 4//4 472//472
f 472//472 4//4 5//5
f 472//472 5//5 473//473
f 473//473 5//5 6//6
f 473//473 6//6 474//474
f 474//474 6//6 7//7
f 474//474 7//7 475//475
f 475//475 7//7 8//8
f 475//475 8//8 476//476
f 476//476 8//8 9//9
f 476//476 9//9 477//477
f 477//477 9//9 10//10
f 477//477 10//10 478//478
f 478//478 10//10 11//11
f 478//478 11//11 479//479
f 479//479 11//11 12//12
f 479//479 12//12 480//480
f 480//480 12//12 1//1
f 480//480 1//1 469//469